<mxfile host="app.diagrams.net" modified="2023-05-31T09:11:15.229Z" agent="Mozilla/5.0 (Windows NT 10.0; Win64; x64) AppleWebKit/537.36 (KHTML, like Gecko) Chrome/113.0.0.0 Safari/537.36" etag="neAjvOOBHIlq1x7pwhyb" version="21.3.5" type="device">
  <diagram name="第 1 页" id="xb9FVqmB5FpCxVfrObX4">
    <mxGraphModel dx="1195" dy="637" grid="1" gridSize="10" guides="0" tooltips="1" connect="1" arrows="1" fold="1" page="1" pageScale="1" pageWidth="827" pageHeight="1169" math="0" shadow="0">
      <root>
        <mxCell id="0" />
        <mxCell id="1" parent="0" />
        <mxCell id="59q45M29NPZy77ps7YQW-1" value="&lt;font style=&quot;font-size: 17px;&quot;&gt;x&lt;sub&gt;1&lt;/sub&gt;&lt;/font&gt;" style="whiteSpace=wrap;html=1;aspect=fixed;" vertex="1" parent="1">
          <mxGeometry x="79" y="183" width="38" height="38" as="geometry" />
        </mxCell>
        <mxCell id="59q45M29NPZy77ps7YQW-2" value="&lt;font style=&quot;font-size: 17px;&quot;&gt;x&lt;sub&gt;11&lt;/sub&gt;&lt;/font&gt;" style="whiteSpace=wrap;html=1;aspect=fixed;" vertex="1" parent="1">
          <mxGeometry x="189" y="154" width="38" height="38" as="geometry" />
        </mxCell>
        <mxCell id="59q45M29NPZy77ps7YQW-3" value="&lt;font style=&quot;font-size: 17px;&quot;&gt;x&lt;sub&gt;12&lt;/sub&gt;&lt;/font&gt;" style="whiteSpace=wrap;html=1;aspect=fixed;" vertex="1" parent="1">
          <mxGeometry x="189" y="227" width="38" height="38" as="geometry" />
        </mxCell>
        <mxCell id="59q45M29NPZy77ps7YQW-4" value="" style="endArrow=classic;html=1;rounded=0;" edge="1" parent="1">
          <mxGeometry width="50" height="50" relative="1" as="geometry">
            <mxPoint x="126" y="197" as="sourcePoint" />
            <mxPoint x="182" y="171" as="targetPoint" />
          </mxGeometry>
        </mxCell>
        <mxCell id="59q45M29NPZy77ps7YQW-5" value="" style="endArrow=classic;html=1;rounded=0;" edge="1" parent="1">
          <mxGeometry width="50" height="50" relative="1" as="geometry">
            <mxPoint x="126" y="199" as="sourcePoint" />
            <mxPoint x="178" y="236" as="targetPoint" />
          </mxGeometry>
        </mxCell>
        <mxCell id="59q45M29NPZy77ps7YQW-6" value="T&lt;sub&gt;1&lt;/sub&gt;" style="text;strokeColor=none;align=center;fillColor=none;html=1;verticalAlign=middle;whiteSpace=wrap;rounded=0;" vertex="1" parent="1">
          <mxGeometry x="122" y="155" width="60" height="30" as="geometry" />
        </mxCell>
        <mxCell id="59q45M29NPZy77ps7YQW-7" value="T&lt;span style=&quot;font-size: 10px;&quot;&gt;2&lt;/span&gt;" style="text;strokeColor=none;align=center;fillColor=none;html=1;verticalAlign=middle;whiteSpace=wrap;rounded=0;" vertex="1" parent="1">
          <mxGeometry x="120" y="217" width="60" height="30" as="geometry" />
        </mxCell>
        <mxCell id="59q45M29NPZy77ps7YQW-8" value="&lt;font color=&quot;#ff0000&quot;&gt;&lt;b&gt;anchor&lt;/b&gt;&lt;/font&gt;" style="text;strokeColor=none;align=center;fillColor=none;html=1;verticalAlign=middle;whiteSpace=wrap;rounded=0;" vertex="1" parent="1">
          <mxGeometry x="161" y="124" width="60" height="30" as="geometry" />
        </mxCell>
        <mxCell id="59q45M29NPZy77ps7YQW-9" value="&lt;font color=&quot;#ff0000&quot;&gt;&lt;b&gt;positive&lt;/b&gt;&lt;/font&gt;" style="text;strokeColor=none;align=center;fillColor=none;html=1;verticalAlign=middle;whiteSpace=wrap;rounded=0;" vertex="1" parent="1">
          <mxGeometry x="161" y="262" width="60" height="30" as="geometry" />
        </mxCell>
        <mxCell id="59q45M29NPZy77ps7YQW-10" value="" style="endArrow=classic;html=1;rounded=0;" edge="1" parent="1">
          <mxGeometry width="50" height="50" relative="1" as="geometry">
            <mxPoint x="233" y="172" as="sourcePoint" />
            <mxPoint x="283" y="172" as="targetPoint" />
          </mxGeometry>
        </mxCell>
        <mxCell id="59q45M29NPZy77ps7YQW-11" value="&lt;span style=&quot;font-size: 17px;&quot;&gt;E&lt;/span&gt;&lt;span style=&quot;font-size: 14.1667px;&quot;&gt;&lt;sub&gt;11&lt;/sub&gt;&lt;/span&gt;" style="whiteSpace=wrap;html=1;aspect=fixed;" vertex="1" parent="1">
          <mxGeometry x="292" y="155" width="38" height="38" as="geometry" />
        </mxCell>
        <mxCell id="59q45M29NPZy77ps7YQW-12" value="" style="endArrow=classic;html=1;rounded=0;" edge="1" parent="1">
          <mxGeometry width="50" height="50" relative="1" as="geometry">
            <mxPoint x="335" y="173" as="sourcePoint" />
            <mxPoint x="385" y="173" as="targetPoint" />
          </mxGeometry>
        </mxCell>
        <mxCell id="59q45M29NPZy77ps7YQW-13" value="&lt;span style=&quot;font-size: 17px;&quot;&gt;f&lt;sub&gt;11&lt;/sub&gt;&lt;/span&gt;" style="whiteSpace=wrap;html=1;aspect=fixed;" vertex="1" parent="1">
          <mxGeometry x="394" y="153" width="38" height="38" as="geometry" />
        </mxCell>
        <mxCell id="59q45M29NPZy77ps7YQW-14" value="" style="endArrow=classic;html=1;rounded=0;" edge="1" parent="1">
          <mxGeometry width="50" height="50" relative="1" as="geometry">
            <mxPoint x="233" y="243" as="sourcePoint" />
            <mxPoint x="283" y="243" as="targetPoint" />
          </mxGeometry>
        </mxCell>
        <mxCell id="59q45M29NPZy77ps7YQW-15" value="&lt;span style=&quot;font-size: 17px;&quot;&gt;E&lt;/span&gt;&lt;span style=&quot;font-size: 14.1667px;&quot;&gt;&lt;sub&gt;12&lt;/sub&gt;&lt;/span&gt;" style="whiteSpace=wrap;html=1;aspect=fixed;" vertex="1" parent="1">
          <mxGeometry x="292" y="226" width="38" height="38" as="geometry" />
        </mxCell>
        <mxCell id="59q45M29NPZy77ps7YQW-16" value="" style="endArrow=classic;html=1;rounded=0;" edge="1" parent="1">
          <mxGeometry width="50" height="50" relative="1" as="geometry">
            <mxPoint x="335" y="243" as="sourcePoint" />
            <mxPoint x="380" y="243" as="targetPoint" />
          </mxGeometry>
        </mxCell>
        <mxCell id="59q45M29NPZy77ps7YQW-17" value="&lt;span style=&quot;font-size: 17px;&quot;&gt;f&lt;sub&gt;12&lt;/sub&gt;&lt;/span&gt;" style="whiteSpace=wrap;html=1;aspect=fixed;" vertex="1" parent="1">
          <mxGeometry x="394" y="224" width="38" height="38" as="geometry" />
        </mxCell>
        <mxCell id="59q45M29NPZy77ps7YQW-18" value="&lt;font color=&quot;#ff0000&quot;&gt;&lt;b&gt;query&lt;/b&gt;&lt;/font&gt;" style="text;strokeColor=none;align=center;fillColor=none;html=1;verticalAlign=middle;whiteSpace=wrap;rounded=0;" vertex="1" parent="1">
          <mxGeometry x="430" y="157" width="60" height="30" as="geometry" />
        </mxCell>
        <mxCell id="59q45M29NPZy77ps7YQW-19" value="&lt;font style=&quot;font-size: 17px;&quot;&gt;x&lt;/font&gt;&lt;font style=&quot;font-size: 14.1667px;&quot;&gt;&lt;sub&gt;2&lt;/sub&gt;&lt;/font&gt;" style="whiteSpace=wrap;html=1;aspect=fixed;" vertex="1" parent="1">
          <mxGeometry x="80" y="340" width="38" height="38" as="geometry" />
        </mxCell>
        <mxCell id="59q45M29NPZy77ps7YQW-20" value="&lt;font style=&quot;font-size: 17px;&quot;&gt;x&lt;/font&gt;&lt;font style=&quot;font-size: 14.1667px;&quot;&gt;&lt;sub&gt;N&lt;/sub&gt;&lt;/font&gt;" style="whiteSpace=wrap;html=1;aspect=fixed;" vertex="1" parent="1">
          <mxGeometry x="320" y="340" width="38" height="38" as="geometry" />
        </mxCell>
        <mxCell id="59q45M29NPZy77ps7YQW-22" value="&lt;font style=&quot;font-size: 17px;&quot;&gt;x&lt;/font&gt;&lt;font style=&quot;font-size: 14.1667px;&quot;&gt;&lt;sub&gt;3&lt;/sub&gt;&lt;/font&gt;" style="whiteSpace=wrap;html=1;aspect=fixed;" vertex="1" parent="1">
          <mxGeometry x="130" y="340" width="38" height="38" as="geometry" />
        </mxCell>
        <mxCell id="59q45M29NPZy77ps7YQW-23" value="&lt;font style=&quot;font-size: 17px;&quot;&gt;x&lt;/font&gt;&lt;font style=&quot;font-size: 14.1667px;&quot;&gt;&lt;sub&gt;4&lt;/sub&gt;&lt;/font&gt;" style="whiteSpace=wrap;html=1;aspect=fixed;" vertex="1" parent="1">
          <mxGeometry x="180" y="340" width="38" height="38" as="geometry" />
        </mxCell>
        <mxCell id="59q45M29NPZy77ps7YQW-24" value="&lt;font style=&quot;font-size: 17px;&quot;&gt;x&lt;/font&gt;&lt;font style=&quot;font-size: 14.1667px;&quot;&gt;&lt;sub&gt;5&lt;/sub&gt;&lt;/font&gt;" style="whiteSpace=wrap;html=1;aspect=fixed;" vertex="1" parent="1">
          <mxGeometry x="230" y="340" width="38" height="38" as="geometry" />
        </mxCell>
        <mxCell id="59q45M29NPZy77ps7YQW-25" value="" style="endArrow=none;dashed=1;html=1;dashPattern=1 3;strokeWidth=2;rounded=0;" edge="1" parent="1">
          <mxGeometry width="50" height="50" relative="1" as="geometry">
            <mxPoint x="283" y="360" as="sourcePoint" />
            <mxPoint x="313" y="360" as="targetPoint" />
            <Array as="points">
              <mxPoint x="293" y="360" />
            </Array>
          </mxGeometry>
        </mxCell>
        <mxCell id="59q45M29NPZy77ps7YQW-26" value="" style="endArrow=classic;html=1;rounded=0;" edge="1" parent="1">
          <mxGeometry width="50" height="50" relative="1" as="geometry">
            <mxPoint x="260" y="330" as="sourcePoint" />
            <mxPoint x="305" y="270" as="targetPoint" />
          </mxGeometry>
        </mxCell>
        <mxCell id="59q45M29NPZy77ps7YQW-27" value="&lt;span style=&quot;font-size: 17px;&quot;&gt;f&lt;sub&gt;2&lt;/sub&gt;&lt;/span&gt;" style="whiteSpace=wrap;html=1;aspect=fixed;" vertex="1" parent="1">
          <mxGeometry x="395" y="280" width="38" height="38" as="geometry" />
        </mxCell>
        <mxCell id="59q45M29NPZy77ps7YQW-28" value="&lt;span style=&quot;font-size: 17px;&quot;&gt;f&lt;sub&gt;N&lt;/sub&gt;&lt;/span&gt;" style="whiteSpace=wrap;html=1;aspect=fixed;" vertex="1" parent="1">
          <mxGeometry x="635" y="280" width="38" height="38" as="geometry" />
        </mxCell>
        <mxCell id="59q45M29NPZy77ps7YQW-29" value="&lt;span style=&quot;font-size: 17px;&quot;&gt;f&lt;sub&gt;3&lt;/sub&gt;&lt;/span&gt;" style="whiteSpace=wrap;html=1;aspect=fixed;" vertex="1" parent="1">
          <mxGeometry x="445" y="280" width="38" height="38" as="geometry" />
        </mxCell>
        <mxCell id="59q45M29NPZy77ps7YQW-30" value="&lt;span style=&quot;font-size: 17px;&quot;&gt;f&lt;sub&gt;4&lt;/sub&gt;&lt;/span&gt;" style="whiteSpace=wrap;html=1;aspect=fixed;" vertex="1" parent="1">
          <mxGeometry x="495" y="280" width="38" height="38" as="geometry" />
        </mxCell>
        <mxCell id="59q45M29NPZy77ps7YQW-31" value="&lt;span style=&quot;font-size: 17px;&quot;&gt;f&lt;sub&gt;5&lt;/sub&gt;&lt;/span&gt;" style="whiteSpace=wrap;html=1;aspect=fixed;" vertex="1" parent="1">
          <mxGeometry x="545" y="280" width="38" height="38" as="geometry" />
        </mxCell>
        <mxCell id="59q45M29NPZy77ps7YQW-32" value="" style="endArrow=none;dashed=1;html=1;dashPattern=1 3;strokeWidth=2;rounded=0;" edge="1" parent="1">
          <mxGeometry width="50" height="50" relative="1" as="geometry">
            <mxPoint x="598" y="300" as="sourcePoint" />
            <mxPoint x="628" y="300" as="targetPoint" />
            <Array as="points">
              <mxPoint x="608" y="300" />
            </Array>
          </mxGeometry>
        </mxCell>
        <mxCell id="59q45M29NPZy77ps7YQW-33" value="" style="endArrow=classic;html=1;rounded=0;" edge="1" parent="1">
          <mxGeometry width="50" height="50" relative="1" as="geometry">
            <mxPoint x="322" y="272" as="sourcePoint" />
            <mxPoint x="382" y="300" as="targetPoint" />
          </mxGeometry>
        </mxCell>
        <mxCell id="59q45M29NPZy77ps7YQW-34" value="&lt;font color=&quot;#ff0000&quot;&gt;&lt;b&gt;key&lt;/b&gt;&lt;/font&gt;" style="text;strokeColor=none;align=center;fillColor=none;html=1;verticalAlign=middle;whiteSpace=wrap;rounded=0;" vertex="1" parent="1">
          <mxGeometry x="500" y="322" width="60" height="30" as="geometry" />
        </mxCell>
      </root>
    </mxGraphModel>
  </diagram>
</mxfile>
